<svg version="1" xmlns="http://www.w3.org/2000/svg" width="1200" height="1200" viewBox="0 0 900.000000 900.000000"><path d="M385.6 14.2c-.2.7-.9 3.7-1.4 6.6-1 5.9-.9 6.1 6.8 7.7 5.7 1.1 15.6 6.5 18.9 10 6.2 6.8 8.8 14.8 10.6 32 .4 3.3.8 6.7 1 7.5.2.8.7 3.4 1 5.8.3 2.3 1.2 6 2 8.1l1.3 3.9-5 1.7c-20.9 6.8-41.1 21.9-50.6 37.8-9 15-14.6 36.7-17.7 68.7-.3 3.6-.8 8.1-1 10-.7 6-1.5 12.3-2 16-.3 1.9-.7 5.3-1 7.5-.3 2.2-1.1 6.7-1.8 10-1.6 7.7-1.6 10.6.3 11.6 12.6 7.3 26.2 14.9 26.6 14.9.2 0 2.1 1.1 4.2 2.3 2 1.3 7.1 4.1 11.2 6.2 4.1 2.1 8.6 4.6 10 5.6 1.4.9 2.8 1.7 3.2 1.8.5.1 8.2 3.7 17.3 8.1 9 4.4 16.7 8 17 8 .2 0 2.8 1.1 5.7 2.5 29.8 13.8 75.8 27.3 109.6 32 2 .3 4.6.7 5.7 1 1.1.2 5.2.7 9 1 3.9.4 8.4.9 10 1.1 6.1.7 30.5 1.5 30.5.9 0-.3-1.2-1.8-2.8-3.3-13-12.8-32.9-42.7-44.1-66.6-12.2-25.9-18.3-42.7-34.2-93.8-12.3-39.6-18.5-55.1-27.2-68.6-13.2-20.1-30.5-27.2-53.4-21.9-6.8 1.6-6.6 1.7-7.8-4-.2-1-.8-3.8-1.4-6.3-.5-2.5-1.2-7.4-1.6-11-.3-3.6-.8-7.2-1-8-.3-.8-.7-3.1-.9-5-1.5-11.6-8-23.9-15.8-30.3-5.9-4.8-16.4-9.9-23.3-11.3-1.1-.2-3.2-.6-4.8-1-1.8-.4-2.8-.1-3.1.8z"/><path d="M336.5 285.7c-4.8 18.1-14.3 42.1-23.5 59.8-17.8 34.3-46.7 69.5-80 97.6-7.8 6.6-18.6 17.3-25 24.9-3 3.6-5.7 6.7-6 7-.3.3-2.7 3.4-5.3 7-2.6 3.6-5 6.9-5.5 7.5-5.2 7-16.9 28.9-21.6 40.4-3.1 7.6-3.1 7.9-.8 7.8 2.2-.2 27.8 1.3 31.6 1.8 1.6.2 5.9.6 9.5.9 3.6.4 7.7.8 9.1 1.1 1.4.2 5 .7 8 1 5.2.5 8.1.9 14 2 1.4.3 4.8.7 7.5 1 2.8.4 5.7.8 6.5 1 .8.2 3.1.7 5 1 1.9.3 6 1 9 1.5 3 .6 6.7 1.2 8.3 1.5 1.5.3 3.7.7 5 .9 2.2.4 41.4 8.3 45.2 9.2 1.1.2 3.1.6 4.5.9 1.4.3 4.5 1 7 1.5s5.4 1.1 6.5 1.4c5 1 23.1 4.8 24.5 5.1.8.2 8.3 1.7 16.5 3.4 8.3 1.6 16.4 3.3 18 3.6 8.7 1.5 32.5 5.5 35.5 5.9 13.5 1.9 18.1 2.4 25 3.1 3 .2 7.8.7 10.5 1 33.3 3.3 98.3 3.3 132.5 0 2.5-.2 7.9-.7 12-1.1 4.1-.3 9.1-.8 11-1 1.9-.1 6.2-.5 9.5-.8 3.3-.3 7.6-.8 9.5-1.1 1.9-.3 5.8-.7 8.5-1.1 2.8-.3 6.1-.7 7.5-.9 1.4-.2 4.3-.6 6.5-.9 16.1-2.1 20.4-2.7 22.1-3 3.2-.6 9.7-1.6 12.9-2 1.7-.3 4.4-.7 6-.9 1.7-.3 7.5-1.3 13-2.2 5.5-1 10.5-1.8 11-1.9.6-.2 3.3-.6 6-1 6.5-1 8.3-1.3 12.3-2.2l3.2-.7-.5-6.6c-2-26.1-8.2-48.9-19.6-72.6-2.7-5.5-5.7-11.4-6.6-13-17.8-30.2-36.7-50.9-71.3-78.4-6.3-5-15.8-13.4-21-18.5l-9.6-9.4-14.9-.6c-8.3-.4-16.6-.9-18.5-1.1-1.9-.3-6.6-.7-10.5-.9-3.8-.3-8.6-.7-10.5-1-4-.5-10.9-1.4-16-2.1-8.7-1.1-32.8-5.6-45.1-8.5-24.7-5.7-43.6-11.5-73.9-22.5-22.1-8-62-27.3-86.5-42-8.8-5.2-16-9.5-16.1-9.5 0 0-.9 3-1.9 6.7zM141.6 561.5c-.9 1.3-1.6 2.7-1.6 3.1 0 .4-1.6 4.8-3.6 9.8-3.6 9.2-6.9 20.2-8 27.3-.3 2.1-.8 4.1-1 4.5-1.7 2.8-2.5 37-1.1 48.3 2.2 17.7 8.4 37.9 16.8 54.9l3 6.1 53.7.1c29.5 0 59.8.4 67.2.8 23.6 1.3 26.2 1.5 40 2.1 7.4.4 16.2.8 19.5 1.1 3.3.2 11.6.6 18.5.9 6.9.3 15 .7 18 1 5.1.3 13.9.8 37.5 2 5 .3 13.3.7 18.5 1 5.2.3 13.8.7 19 1 5.2.3 14 .7 19.5 1 5.5.3 14.5.7 20 1 5.5.3 14.7.7 20.5 1 11.6.6 25.4 1.2 46.5 2 7.7.3 17.5.8 21.8 1 4.2.3 7.7.3 7.7 0 0-.2-3.7-7.8-8.3-16.7-15.3-30.2-23.7-51.8-31.3-80.5-3.9-14.9-4.2-16-4.3-18.3-.3-3.8-1.6-4.1-15.7-4.5-7.6-.3-15.7-.7-17.9-.9-2.2-.3-8.4-.8-13.9-1.2-5.4-.3-10.7-.7-11.9-1-1.1-.2-5-.6-8.6-.9-3.7-.3-7.6-.7-8.7-.9-1.2-.2-4.5-.7-7.4-1.1-2.9-.4-6.1-.8-7.1-1-.9-.2-3.9-.7-6.6-1.1-2.6-.3-5.7-.8-6.8-1-1-.2-3.5-.6-5.5-.9-2-.3-4.7-.8-6-1-1.4-.3-5.4-1-8.9-1.5-3.5-.6-10.7-1.9-16-3-5.3-1-11.4-2.1-13.6-2.4-2.2-.4-4.7-.8-5.5-1.1-.8-.2-2.6-.6-4-.9-1.4-.2-9.7-1.8-18.5-3.6-8.8-1.7-16.9-3.4-18-3.6-1.1-.2-10.1-2-20-4-9.9-1.9-18.9-3.7-20-3.9-1.1-.1-5.8-1-10.5-1.9-4.7-.8-10.1-1.8-12-2.1-1.9-.3-7.1-1.2-11.5-2-7.2-1.3-24.1-3.8-33.7-5-13.7-1.8-16.7-2.1-24.8-3-11.3-1.1-27.2-2.3-43.6-3-9.9-.5-10.2-.4-11.8 2zM768 587.1c-3.2.7-6.8 1.5-12.5 2.5-2.3.4-5.8 1-13 2.4-2.7.5-6.8 1.2-9 1.5-2.2.3-5.1.8-6.5 1-1.4.3-4.3.7-6.5 1-2.2.3-5.1.8-6.5 1-1.4.2-4.5.7-7 1-2.5.3-7.3 1-10.8 1.6-3.5.5-8.7 1.2-11.6 1.5-3 .2-6.2.6-7.2.8-1.1.2-5.5.7-9.9 1.1-4.4.4-8.7.9-9.6 1-.8.2-5.3.6-10 1-4.6.4-9.1.8-9.9 1-.8.2-5.7.6-10.8 1-5.1.4-11.2.8-13.5 1.1-2.3.2-8.2.6-13.2.9-4.9.4-11 .8-13.5 1-2.5.2-9.9.7-16.5 1.1-14.3.8-15.1.9-14.8 2.1.1.4.4 2.9.7 5.3.3 2.5 1.2 7.6 2.1 11.5.9 3.8 1.8 7.7 2 8.5.8 3.5 6 19.1 8.7 26 4.6 11.6 8.4 19.6 20.9 44.5 8.6 16.9 12.2 23 13.5 23.2 11.3 1 26.1 1.4 74.4 1.9l56.5.7 4.6-8.4c10.8-19.5 19.8-41.5 25.8-62.6 4.9-17.2 6.1-23.3 8.6-42.8.3-2.2.8-10.9 1.2-19.3.6-17 1.1-16-6.7-14.1zM191 736.6c0 2.6 11.5 21.5 19.3 31.9 6.5 8.6 25.6 28.2 32.2 33.1 2.2 1.6 4.7 3.5 5.5 4.3 2.5 2.4 23 15.6 31.5 20.3 11.4 6.2 32 15 45.5 19.4 12 3.8 14.2 4.5 15 4.6.3 0 2.5.7 5 1.4s5.6 1.5 7 1.8c1.4.3 3.4.7 4.5 1 14.4 3.3 28.4 5.6 42.5 7.1 3.6.3 7.6.8 9 1 14 2.2 67 2.2 75 0 .8-.2 4-.7 7-1 3-.3 7.1-1 9-1.5 1.9-.5 4.9-1.1 6.5-1.3 1.7-.3 5-1 7.5-1.7s5.2-1.3 6-1.5c3.6-.7 25.2-8.1 32.8-11.2 11.5-4.7 26.3-11.8 35.7-17.1 8.6-4.9 34.8-22 38-24.9 1.1-1 5.4-4.5 9.5-7.7 8.1-6.4 34.2-32.2 37.7-37.1l2.1-3-25.2-.1c-22.3-.1-60.2-.9-87.6-1.9-27.1-1-43.5-1.7-69.5-3-4.9-.3-13.7-.7-19.5-1-18.1-.9-27.2-1.4-36.5-2-4.9-.3-13.3-.8-18.5-1.1-5.2-.3-12.4-.7-16-.9-3.6-.2-10.8-.6-16-.9-12.5-.7-24.9-1.5-33.5-2.1-6.3-.5-13.5-.9-32.5-2-14.4-.8-29.7-1.8-33-2.2-5.1-.5-96-1.2-96-.7z"/></svg>