<svg xmlns="http://www.w3.org/2000/svg" viewBox="0 0 350 450"><defs><style>.cls-1{fill:#fff;}.cls-2{fill:none;stroke:#603913;stroke-miterlimit:10;stroke-width:7px;}.cls-3{fill:#39b54a;}.cls-4{fill:#d7df23;}</style></defs><title>icon-white-fill</title><g id="pear4"><path class="cls-1" d="M283,201.3c113.47,85.8,6.23,227.43-101.32,233.59-136.75,7.83-200-137-108.4-212.46C162.05,149.31,98.5,58.67,176.93,50.71,199.09,48.46,212,147.6,283,201.3Z"/><path class="cls-2" d="M145.37,13.89c27.14,4.74,17.87,25,24.52,38.21"/><path class="cls-3" d="M176.38,49.09C122.67,61,134,93.67,125.5,132.82c41.75,24.29,79.8,43,131.23,43.62C207,125,220.57,39.3,176.38,49.09Z"/><path class="cls-3" d="M332.43,286.84c-1.35-30-15.51-59.69-47.86-84.31a126,126,0,0,1-16.39-15c-52.94-.67-103-16.74-145.95-44-6.53,25.33-19.23,53.59-52.91,82.35a114.29,114.29,0,0,0-32.89,46.82c45,1.29,87,14.31,132.5,21.89C225.27,303.06,278.95,296.58,332.43,286.84Z"/><path class="cls-3" d="M89.58,372.41c-14-.52-27.46-.3-41.15-.13,17.15,35.66,60.88,64.47,132.64,63.82,41-.37,83.35-23.31,109.36-54.75C223.48,381.37,156.53,376.31,89.58,372.41Z"/><path class="cls-3" d="M175,306.67c-53.41-7.72-97.62-21.84-150.5-23-12.25,24.89-12,53,1.76,78.08,17.72-.19,37.19-.44,55.27.15,52.9,2.7,105.8,5.87,158.7,7.94C228.95,349.48,221.94,332,217.5,310A358.11,358.11,0,0,1,175,306.67Z"/><path class="cls-4" d="M340.36,296.86c-31.7,7.16-73.48,10.92-109.53,13,2.72,21.86,12.05,38.15,23.27,59.95,20.71,1.31,45.48,1.15,66.19,1.14C333.42,348.42,341.31,323,340.36,296.86Z"/></g></svg>