<svg xmlns="http://www.w3.org/2000/svg" viewBox="0 0 350 450"><defs><style>.cls-1{fill:none;stroke:#603913;stroke-miterlimit:10;stroke-width:7px;}.cls-2{fill:#39b54a;}.cls-3{fill:#d7df23;}</style></defs><title>icon-transparent</title><g id="pear4"><path class="cls-1" d="M142.35,9.89c27.14,4.74,17.87,25,24.52,38.21"/><path class="cls-2" d="M173.36,45.1C119.65,57,131,89.67,122.48,128.82c41.75,24.29,79.8,43,131.23,43.62C204,121,217.55,35.3,173.36,45.1Z"/><path class="cls-2" d="M329.41,282.84c-1.35-30-15.51-59.69-47.86-84.31a126,126,0,0,1-16.39-15c-52.94-.67-103-16.74-145.95-44-6.53,25.33-19.23,53.59-52.91,82.35a114.29,114.29,0,0,0-32.89,46.82c45,1.29,87,14.31,132.5,21.89C222.25,299.06,275.93,292.59,329.41,282.84Z"/><path class="cls-2" d="M86.56,368.41c-14-.52-27.46-.3-41.15-.13,17.15,35.66,60.88,64.47,132.64,63.82,41-.37,83.35-23.31,109.36-54.75C220.46,377.38,153.51,372.32,86.56,368.41Z"/><path class="cls-2" d="M172,302.67c-53.41-7.72-97.62-21.84-150.5-23-12.25,24.89-12,53,1.76,78.08,17.72-.19,37.19-.44,55.27.15,52.9,2.7,105.8,5.87,158.7,7.94C225.93,345.49,218.92,328,214.48,306A358.11,358.11,0,0,1,172,302.67Z"/><path class="cls-3" d="M337.34,292.87c-31.7,7.16-73.48,10.92-109.53,13,2.72,21.86,12.05,38.15,23.27,59.95,20.71,1.31,45.48,1.15,66.19,1.14C330.4,344.42,338.29,319,337.34,292.87Z"/></g></svg>