<svg xmlns="http://www.w3.org/2000/svg" viewBox="0 0 606.97 250"><defs><style>.cls-1{fill:none;stroke:#603913;stroke-miterlimit:10;stroke-width:7px;}.cls-2,.cls-9{fill:#39b54a;}.cls-3{fill:#d7df23;}.cls-4{font-size:21px;font-family:Lato-Thin, Lato;}.cls-10,.cls-4{fill:#231f20;}.cls-5{letter-spacing:-0.03em;}.cls-6{letter-spacing:0em;}.cls-7{letter-spacing:-0.03em;}.cls-8{letter-spacing:-0.01em;}.cls-9{font-size:84px;font-family:Lollipop, Lollipop;}.cls-10{font-size:136.87px;font-family:RueBorgia, Rue Borgia;}</style></defs><title>pearcss-logo</title><g id="pear4"><path class="cls-1" d="M89.84,10.18c14.13,2.47,9.31,13,12.77,19.9"/><path class="cls-2" d="M106,28.51c-28,6.2-22.07,23.21-26.5,43.6C101.23,84.76,121,94.52,147.82,94.82,121.93,68,129,23.41,106,28.51Z"/><path class="cls-2" d="M187.24,152.31c-.7-15.6-8.08-31.08-24.92-43.9a65.59,65.59,0,0,1-8.53-7.8,144.88,144.88,0,0,1-76-22.93c-3.4,13.19-10,27.9-27.55,42.88a59.51,59.51,0,0,0-17.13,24.38c23.41.67,45.29,7.45,69,11.4C131.44,160.75,159.39,157.38,187.24,152.31Z"/><path class="cls-2" d="M60.79,196.87c-7.27-.27-14.3-.16-21.42-.07,8.93,18.57,31.7,33.57,69.07,33.23,21.36-.19,43.4-12.14,56.94-28.51C130.51,201.53,95.65,198.9,60.79,196.87Z"/><path class="cls-2" d="M105.27,162.63c-27.81-4-50.83-11.37-78.37-12a43.23,43.23,0,0,0,.91,40.65c9.23-.1,19.37-.23,28.78.08,27.55,1.4,55.09,3.06,82.64,4.13-5.87-10.6-9.52-19.71-11.83-31.15A186.47,186.47,0,0,1,105.27,162.63Z"/><path class="cls-3" d="M191.37,157.53c-16.51,3.73-38.26,5.69-57,6.75,1.42,11.38,6.28,19.87,12.11,31.21,10.78.68,23.68.6,34.46.59C187.76,184.37,191.87,171.16,191.37,157.53Z"/><text class="cls-4" transform="translate(221.22 185.23)">pu<tspan class="cls-5" x="22.92" y="0">r</tspan><tspan class="cls-6" x="29.56" y="0">e english, all </tspan><tspan class="cls-7" x="143.76" y="0">r</tspan><tspan x="150.4" y="0">esponsi</tspan><tspan class="cls-8" x="218.02" y="0">v</tspan><tspan x="228.16" y="0">e</tspan></text><text class="cls-9" transform="translate(475.47 159.47)">css</text><text class="cls-10" transform="translate(196.68 159.47)">pear</text></g></svg>